<svg width="256" height="256" viewBox="0 0 120 130" xmlns="http://www.w3.org/2000/svg">
<defs>
  <linearGradient id="gold-b" x1="0" y1="1" x2="1" y2="0">
    <stop offset="0%" stop-color="#8B6914"/>
    <stop offset="50%" stop-color="#C49520"/>
    <stop offset="100%" stop-color="#D4A017"/>
  </linearGradient>
</defs>
<rect x="22" y="6" width="85" height="100" rx="13" fill="#0E0830"/>
<rect x="12" y="12" width="88" height="100" rx="13" fill="#150D40"/>
<rect x="16" y="16" width="80" height="92" rx="10" fill="#2D1B69"/>
<rect x="24" y="26" width="30" height="30" rx="7" fill="#7A5C12"/>
<rect x="27" y="29" width="24" height="24" rx="5" fill="url(#gold-b)"/>
<circle cx="39" cy="41" r="7" fill="#150D40"/>
<circle cx="39" cy="41" r="4" fill="#2D1B69"/>
<rect x="60" y="26" width="30" height="30" rx="7" fill="#7A5C12"/>
<rect x="63" y="29" width="24" height="24" rx="5" fill="url(#gold-b)"/>
<circle cx="75" cy="41" r="7" fill="#150D40"/>
<circle cx="75" cy="41" r="4" fill="#2D1B69"/>
<rect x="24" y="64" width="30" height="30" rx="7" fill="#7A5C12"/>
<rect x="27" y="67" width="24" height="24" rx="5" fill="url(#gold-b)"/>
<circle cx="39" cy="79" r="7" fill="#150D40"/>
<circle cx="39" cy="79" r="4" fill="#2D1B69"/>
<rect x="60" y="64" width="30" height="30" rx="7" fill="#1E1560"/>
<rect x="70" y="77" width="12" height="10" rx="3" fill="#4A3BA0"/>
<path d="M73 77 Q73 70 76 70 Q79 70 79 77" fill="none" stroke="#4A3BA0" stroke-width="2.5" stroke-linecap="round"/>
<circle cx="76" cy="82" r="1.5" fill="#B8860B"/>
<polygon points="105,5 107,0 109,5 114,7 109,9 107,14 105,9 100,7" fill="#D4A017" opacity="0.85"/>
<polygon points="8,40 9.5,36 11,40 15,41.5 11,43 9.5,47 8,43 4,41.5" fill="#C49520" opacity="0.6"/>
<polygon points="50,2 51,-1 52,2 55,3 52,4 51,7 50,4 47,3" fill="#D4A017" opacity="0.8"/>
</svg>
