<svg width="256" height="256" viewBox="0 0 120 130" xmlns="http://www.w3.org/2000/svg">
<defs>
  <linearGradient id="gold-a" x1="0" y1="0" x2="1" y2="1">
    <stop offset="0%" stop-color="#D4A017"/>
    <stop offset="45%" stop-color="#B8860B"/>
    <stop offset="100%" stop-color="#8B6914"/>
  </linearGradient>
</defs>
<polygon points="60,12 5,62 115,62" fill="#150D40"/>
<polygon points="60,20 15,62 105,62" fill="#2D1B69"/>
<rect x="82" y="18" width="14" height="28" rx="3" fill="#0E0830"/>
<rect x="18" y="60" width="84" height="54" rx="4" fill="#150D40"/>
<rect x="22" y="64" width="76" height="46" rx="3" fill="#2D1B69"/>
<rect x="44" y="74" width="28" height="36" rx="7" fill="#7A5C12"/>
<rect x="47" y="77" width="22" height="33" rx="5" fill="url(#gold-a)"/>
<circle cx="64" cy="95" r="3" fill="#5C4510"/>
<circle cx="63.5" cy="94.5" r="1.2" fill="#C49520"/>
<rect x="28" y="72" width="18" height="16" rx="4" fill="#9A7209"/>
<rect x="30" y="74" width="14" height="12" rx="3" fill="#C49520"/>
<line x1="37" y1="74" x2="37" y2="86" stroke="#7A5C12" stroke-width="1.5"/>
<line x1="30" y1="80" x2="44" y2="80" stroke="#7A5C12" stroke-width="1.5"/>
<line x1="10" y1="62" x2="110" y2="62" stroke="#B8860B" stroke-width="4" stroke-linecap="round"/>
<path d="M56 82 Q56 78 53 78 Q49 78 49 82 Q49 86 56 90 Q63 86 63 82 Q63 78 59 78 Q56 78 56 82Z" fill="#2D1B69" opacity="0.5"/>
<polygon points="108,15 110,10 112,15 117,17 112,19 110,24 108,19 103,17" fill="#D4A017" opacity="0.9"/>
<polygon points="10,48 11.5,44 13,48 17,49.5 13,51 11.5,55 10,51 6,49.5" fill="#C49520" opacity="0.6"/>
</svg>
