<svg width="256" height="256" viewBox="0 0 120 130" xmlns="http://www.w3.org/2000/svg">
<defs>
  <linearGradient id="gold-a" x1="0" y1="0" x2="1" y2="1">
    <stop offset="0%" stop-color="#D4A017"/>
    <stop offset="45%" stop-color="#B8860B"/>
    <stop offset="100%" stop-color="#8B6914"/>
  </linearGradient>
  <linearGradient id="gold-b" x1="0" y1="1" x2="1" y2="0">
    <stop offset="0%" stop-color="#8B6914"/>
    <stop offset="50%" stop-color="#C49520"/>
    <stop offset="100%" stop-color="#D4A017"/>
  </linearGradient>
</defs>
<rect x="15" y="30" width="90" height="80" rx="14" fill="#150D40"/>
<rect x="19" y="34" width="82" height="72" rx="11" fill="#2D1B69"/>
<path d="M38 34 Q38 8 60 8 Q82 8 82 34" fill="none" stroke="#9A7209" stroke-width="7" stroke-linecap="round"/>
<path d="M40 34 Q40 12 60 12 Q80 12 80 34" fill="none" stroke="#C49520" stroke-width="3" stroke-linecap="round"/>
<circle cx="60" cy="68" r="19" fill="#7A5C12"/>
<circle cx="60" cy="68" r="15" fill="url(#gold-a)"/>
<circle cx="60" cy="68" r="11" fill="url(#gold-b)"/>
<text style="font-family:sans-serif;font-size:18px;font-weight:700;fill:#5C4510" x="60" y="74" text-anchor="middle">$</text>
<ellipse cx="35" cy="44" rx="9" ry="4" fill="#4A3BA0" opacity="0.6" transform="rotate(-20,35,44)"/>
<polygon points="95,25 97,20 99,25 104,27 99,29 97,34 95,29 90,27" fill="#D4A017" opacity="0.9"/>
<polygon points="18,18 19.5,14 21,18 25,19.5 21,21 19.5,25 18,21 14,19.5" fill="#C49520" opacity="0.7"/>
<polygon points="100,65 101,62 102,65 105,66 102,67 101,70 100,67 97,66" fill="#D4A017" opacity="0.8"/>
</svg>
